HIERARCHY
ROOT Hips
{
 OFFSET 0.000000 0.000000 0.000000
 CHANNELS 6 Xposition Yposition Zposition Yrotation Xrotation Zrotation
 JOINT Chest
 {
  OFFSET 0.000000 9.585900 0.002600
  CHANNELS 3 Yrotation Xrotation Zrotation
  JOINT Chest2
  {
   OFFSET 0.000000 9.601200 -0.005300
   CHANNELS 3 Yrotation Xrotation Zrotation
   JOINT Chest3
   {
    OFFSET 0.000000 9.561800 0.000000
    CHANNELS 3 Yrotation Xrotation Zrotation
    JOINT Chest4
    {
     OFFSET 0.000000 9.552100 0.000000
     CHANNELS 3 Yrotation Xrotation Zrotation
     JOINT Neck
     {
      OFFSET 0.000000 14.453000 0.000000
      CHANNELS 3 Yrotation Xrotation Zrotation
      JOINT Head
      {
       OFFSET 0.000000 8.936500 -0.011300
       CHANNELS 3 Yrotation Xrotation Zrotation
       End Site
       {
        OFFSET 0.000000 17.073600 -0.006000
       }
      }
     }
     JOINT RightCollar
     {
      OFFSET -2.921100 9.558500 0.000000
      CHANNELS 3 Yrotation Xrotation Zrotation
      JOINT RightShoulder
      {
       OFFSET -13.519700 0.000000 0.000000
       CHANNELS 3 Yrotation Xrotation Zrotation
       JOINT RightElbow
       {
        OFFSET 0.000000 -29.696600 0.000000
        CHANNELS 3 Yrotation Xrotation Zrotation
        JOINT RightWrist
        {
         OFFSET 0.000000 -24.004700 0.000000
         CHANNELS 3 Yrotation Xrotation Zrotation
         End Site
         {
          OFFSET 0.000000 -17.728500 0.000000
         }
        }
       }
      }
     }
     JOINT LeftCollar
     {
      OFFSET 2.921100 9.558500 0.000000
      CHANNELS 3 Yrotation Xrotation Zrotation
      JOINT LeftShoulder
      {
       OFFSET 13.519700 0.000000 0.000000
       CHANNELS 3 Yrotation Xrotation Zrotation
       JOINT LeftElbow
       {
        OFFSET 0.000000 -29.696600 0.000000
        CHANNELS 3 Yrotation Xrotation Zrotation
        JOINT LeftWrist
        {
         OFFSET 0.000000 -24.004700 0.000000
         CHANNELS 3 Yrotation Xrotation Zrotation
         End Site
         {
          OFFSET 0.000000 -17.728500 0.000000
         }
        }
       }
      }
     }
    }
   }
  }
 }
 JOINT RightHip
 {
  OFFSET -7.771700 -0.012900 -0.001300
  CHANNELS 3 Yrotation Xrotation Zrotation
  JOINT RightKnee
  {
   OFFSET 0.000000 -40.869800 0.001200
   CHANNELS 3 Yrotation Xrotation Zrotation
   JOINT RightAnkle
   {
    OFFSET 0.000000 -39.717900 0.002100
    CHANNELS 3 Yrotation Xrotation Zrotation
    JOINT RightToe
    {
     OFFSET 0.000000 -4.965400 11.033500
     CHANNELS 3 Yrotation Xrotation Zrotation
     End Site
     {
      OFFSET 0.000000 -1.423100 5.872300
     }
    }
   }
  }
 }
 JOINT LeftHip
 {
  OFFSET 7.771700 -0.012900 -0.001300
  CHANNELS 3 Yrotation Xrotation Zrotation
  JOINT LeftKnee
  {
   OFFSET 0.000000 -40.869800 0.001200
   CHANNELS 3 Yrotation Xrotation Zrotation
   JOINT LeftAnkle
   {
    OFFSET 0.000000 -39.717900 0.002100
    CHANNELS 3 Yrotation Xrotation Zrotation
    JOINT LeftToe
    {
     OFFSET 0.000000 -4.965400 11.033500
     CHANNELS 3 Yrotation Xrotation Zrotation
     End Site
     {
      OFFSET 0.000000 -1.423100 5.872300
     }
    }
   }
  }
 }
}
MOTION
Frames: 11
Frame Time: 0.008333
0.000000 85.388000 0.000000 0.000000 -5.767877 0.000000 0.000000 11.653817 0.000000 0.000000 -5.885947 0.000000 0.000000 -0.000000 0.000000 0.000000 -0.000000 0.000000 0.000000 12.528835 0.000000 0.000000 0.711642 0.000000 0.000000 -0.000000 0.000000 0.000000 0.000000 -90.000000 0.000000 -2.309062 0.000000 0.000000 2.309062 0.000000 0.000000 -0.000000 0.000000 0.000000 -0.000000 90.000000 0.000000 -2.309062 0.000000 0.000000 2.309062 0.000000 0.000000 8.520406 0.000000 0.000000 1.905762 0.000000 -0.000000 -4.658285 0.000000 0.000000 -0.000000 0.000000 0.000000 8.520406 0.000000 0.000000 1.905762 0.000000 -0.000000 -4.658285 0.000000 0.000000 -0.000000 0.000000
-7.418402 57.570660 31.784355 173.714901 -39.590911 -2.285728 2.040435 21.123159 1.065902 0.273404 2.706344 -0.007635 0.436181 4.574414 -0.032199 1.754192 18.068435 0.081133 -0.885506 15.947088 -2.317566 -0.817310 -6.175085 -3.994501 1.691887 3.176154 1.889460 16.992433 -26.954316 -9.609431 47.868705 -40.253234 -22.368962 10.355535 0.730227 -37.702373 -6.129479 -0.563643 -2.883715 -14.195815 -24.888963 4.338271 -59.328145 -39.281158 23.773962 -28.437122 -4.895119 23.784132 10.253722 -33.512565 1.052914 1.658232 68.427792 4.962031 2.881799 6.720332 3.596028 -0.170650 0.359157 -0.088448 -7.542698 -35.659589 -0.963225 27.342753 69.963709 26.487320 -26.186539 2.444715 -5.863426 0.141582 -0.797873 0.239948
-7.428862 57.559783 31.791489 173.761048 -39.628020 -2.231733 1.977040 21.063276 0.996181 0.270227 2.753080 -0.017610 0.436779 4.512582 -0.030253 1.733297 18.036739 0.065162 -0.888264 16.132674 -2.309488 -0.831294 -5.757833 -3.950650 1.670927 3.308969 1.894962 17.058261 -27.166122 -9.605581 47.534460 -40.079193 -22.022337 10.292427 0.572737 -37.741795 -6.012287 -0.417075 -2.848037 -14.094243 -24.940624 4.142685 -59.179457 -39.221570 23.769706 -28.424226 -4.918724 23.804725 10.337291 -33.473861 0.975514 1.890488 68.446181 5.106530 2.878343 6.655503 3.703944 -0.168559 0.375341 -0.077843 -7.536325 -35.636822 -1.024797 27.265133 69.953461 26.350439 -26.201003 2.499386 -5.877602 0.117892 -0.798714 0.252333
-7.433423 57.547035 31.802852 173.817808 -39.656643 -2.218272 1.923636 21.008408 0.961801 0.279610 2.744536 -0.017754 0.430720 4.527268 -0.036188 1.716540 18.020351 0.050786 -0.892982 16.260085 -2.293835 -0.770609 -5.477207 -3.886450 1.636953 3.393532 1.904206 17.086742 -27.295970 -9.589160 47.240414 -40.000739 -21.752861 10.236619 0.415074 -37.770363 -5.924963 -0.300579 -2.820296 -13.941291 -24.965877 3.959612 -59.057385 -39.227605 23.795591 -28.413549 -4.945645 23.823645 10.381717 -33.449672 0.951905 2.047226 68.458778 5.177762 2.851835 6.612764 3.801639 -0.197033 0.389561 -0.068835 -7.589586 -35.620458 -0.995093 27.120946 69.962645 26.108393 -26.221110 2.544589 -5.905365 0.111522 -0.787117 0.288949
-7.437966 57.534597 31.815555 173.871322 -39.689114 -2.201305 1.916999 20.943850 0.953223 0.250516 2.788076 -0.032623 0.433078 4.543181 -0.038205 1.705279 18.022469 0.038928 -0.815744 16.380088 -2.217651 -0.733888 -5.370599 -3.828652 1.538573 3.399897 1.910006 17.156092 -27.306722 -9.569126 46.963170 -40.023327 -21.568688 10.188451 0.250539 -37.794292 -5.902484 -0.247992 -2.802430 -13.717767 -24.941294 3.796099 -58.978410 -39.294148 23.862239 -28.400439 -4.974907 23.843230 10.417607 -33.425916 0.921250 2.049340 68.480133 5.134400 2.817293 6.595008 3.859206 -0.154960 0.387164 -0.062409 -7.626603 -35.597029 -0.976289 26.969687 69.967836 25.863499 -26.224320 2.587171 -5.898129 0.141322 -0.753551 0.224390
-7.445095 57.523455 31.828530 173.919277 -39.726347 -2.165099 1.896305 20.964216 0.912069 0.219148 2.797577 -0.044540 0.464796 4.554308 -0.031822 1.700532 18.044104 0.028878 -0.755114 16.401573 -2.153958 -0.644309 -5.330166 -3.731548 1.482433 3.355477 1.925690 17.116519 -27.396853 -9.517871 46.695552 -40.017254 -21.334297 10.145988 0.081392 -37.824994 -5.904178 -0.253480 -2.779219 -13.474309 -24.881634 3.648830 -58.957958 -39.413677 23.970499 -28.388215 -5.001277 23.864443 10.458169 -33.382171 0.863291 2.075934 68.490893 5.098227 2.896001 6.529741 3.917333 -0.180024 0.412705 -0.035226 -7.625115 -35.566366 -1.000391 26.827877 69.961451 25.644121 -26.205151 2.634271 -5.876832 0.125337 -0.737879 0.197999
-7.456171 57.507277 31.849503 173.877361 -39.704974 -2.054470 1.946480 20.943180 0.855566 0.207676 2.787783 -0.046526 0.479574 4.601413 -0.033878 1.702741 18.082389 0.020956 -0.685127 16.375045 -2.078289 -0.540380 -5.378858 -3.616027 1.430302 3.271946 1.943481 16.958688 -27.436434 -9.380265 46.565273 -40.046518 -21.209376 10.103501 -0.098274 -37.870805 -5.916866 -0.289865 -2.753110 -13.244744 -24.815860 3.531132 -59.002069 -39.564475 24.118945 -28.389575 -5.023885 23.880931 10.594147 -33.456614 0.840627 2.021744 68.542933 4.916395 2.824597 6.630706 4.006486 -0.112007 0.293423 0.001354 -7.536348 -35.594401 -1.039781 26.672393 69.948240 25.417258 -26.195243 2.677838 -5.890703 0.105998 -0.719119 0.210636
-7.457461 57.502520 31.860548 173.905662 -39.767676 -2.043743 1.960444 21.015293 0.854971 0.278535 2.833697 -0.027635 0.395242 4.573703 -0.054901 1.746601 18.167409 0.022281 -0.609075 16.311592 -1.995241 -0.426946 -5.496101 -3.489431 1.367875 3.152517 1.960004 16.887131 -27.393333 -9.306412 46.368817 -40.150056 -21.127999 10.060944 -0.288840 -37.934770 -5.955100 -0.364090 -2.737572 -13.029525 -24.734560 3.447279 -59.101345 -39.719395 24.299192 -28.404879 -5.043110 23.882947 10.597574 -33.387590 0.869623 1.933219 68.544574 4.752130 2.838635 6.584112 4.072507 -0.093666 0.306574 0.001904 -7.518042 -35.527346 -1.039714 26.525641 69.944083 25.234405 -26.210674 2.691959 -5.878824 0.123597 -0.700599 0.191357
-7.458790 57.499347 31.871625 173.935117 -39.824942 -2.038442 1.946663 21.078120 0.840958 0.326194 2.874859 -0.010695 0.416079 4.621783 -0.052993 1.740932 18.203820 0.018942 -0.527656 16.222553 -1.910131 -0.303762 -5.660802 -3.361247 1.383109 2.991395 1.975607 16.759347 -27.337869 -9.262700 46.133246 -40.270979 -21.015169 10.028933 -0.472971 -38.009435 -6.010045 -0.464593 -2.729136 -12.832513 -24.647940 3.385193 -59.238370 -39.867371 24.487394 -28.463987 -5.072717 23.809808 10.592085 -33.323712 0.938944 1.688671 68.549021 4.401976 2.853089 6.536559 4.149934 -0.073112 0.318147 0.012221 -7.496314 -35.459467 -1.041373 26.379331 69.933863 25.057677 -26.202146 2.693927 -5.887484 0.117559 -0.673438 0.188221
-7.487428 57.491858 31.884931 173.977071 -39.827838 -1.886603 1.909706 21.113728 0.694926 0.326381 2.894676 -0.007684 0.405388 4.636445 -0.061040 1.769431 18.270302 0.027456 -0.441319 16.119634 -1.827432 -0.170343 -5.851140 -3.239532 1.405314 2.841063 1.982353 16.611129 -27.206070 -9.174563 45.995533 -40.428014 -21.026009 10.011673 -0.642423 -38.081187 -6.068949 -0.573479 -2.734205 -12.658976 -24.564990 3.348471 -59.395336 -40.004284 24.658731 -28.489230 -5.083743 23.747720 10.665731 -33.311661 0.770513 1.593948 68.604486 4.216312 2.856720 6.478191 4.212076 -0.052853 0.313802 0.016784 -7.374173 -35.459203 -1.216706 26.273752 69.877884 24.853809 -26.207056 2.746523 -5.814965 0.085047 -0.643611 0.146066
-7.505093 57.489796 31.894176 174.037357 -39.858589 -1.817114 1.927536 21.192687 0.665215 0.283652 2.886487 -0.026317 0.425863 4.682877 -0.055545 1.760511 18.293153 0.023831 -0.352628 16.013885 -1.750499 -0.030544 -6.046570 -3.129561 1.428522 2.715830 1.981791 16.492895 -27.055874 -9.097357 45.877233 -40.594583 -21.066089 10.004866 -0.801852 -38.145354 -6.120826 -0.671093 -2.751573 -12.515465 -24.493041 3.335742 -59.566287 -40.101901 24.763097 -28.471924 -5.069063 23.781694 10.679293 -33.256632 0.691255 1.484826 68.626279 4.035961 2.859411 6.392723 4.244430 -0.043938 0.340119 0.031950 -7.304918 -35.417984 -1.328264 26.186310 69.827458 24.698122 -26.184313 2.800023 -5.765180 0.026954 -0.636666 0.126724
